<svg height="496pt" viewBox="0 0 496 496" width="496pt" xmlns="http://www.w3.org/2000/svg"><path d="m267.921875 200c-1.203125 2.71875-2.480469 5.441406-3.921875 8-22.878906 42.878906-68 72-120 72-75.121094 0-136-60.878906-136-136s60.878906-136 136-136 136 60.878906 136 136c0 20-4.320312 38.960938-12.078125 56zm0 0" fill="#b4dd7f"/><path d="m248 144c0 57.4375-46.5625 104-104 104s-104-46.5625-104-104 46.5625-104 104-104 104 46.5625 104 104zm0 0" fill="#e6e9ed"/><path d="m232 392c13.28125 0 24 10.71875 24 24 0 6.640625-2.71875 12.640625-7.039062 16.960938-4.320313 4.320312-10.320313 7.039062-16.960938 7.039062h-176c-13.28125 0-24-10.71875-24-24 0-6.640625 2.71875-12.640625 7.039062-16.960938 4.320313-4.320312 10.320313-7.039062 16.960938-7.039062zm0 0" fill="#ff826e"/><path d="m80 312h128c26.480469 0 48 21.519531 48 48v24c0 4.398438-3.601562 8-8 8h-208c-4.398438 0-8-3.601562-8-8v-24c0-26.480469 21.519531-48 48-48zm0 0" fill="#cf9e76"/><path d="m248 440c4.398438 0 8 3.601562 8 8 0 11.039062-4.480469 21.039062-11.679688 28.320312-7.28125 7.199219-17.28125 11.679688-28.320312 11.679688h-144c-22.078125 0-40-17.921875-40-40 0-4.398438 3.601562-8 8-8zm0 0" fill="#cf9e76"/><path d="m488 208v16c0 4.398438-3.601562 8-8 8h-208c-4.398438 0-8-3.601562-8-8v-16c1.441406-2.558594 2.71875-5.28125 3.921875-8h212.078125c4.398438 0 8 3.601562 8 8zm0 0" fill="#ccd1d9"/><path d="m472 232-13.519531 216.160156-2.480469-.160156h-160l-2.480469.160156-13.519531-216.160156zm0 0" fill="#fcd770"/><path d="m458.480469 448.160156-1.519531 24.800782c-.5625 8.480468-7.519532 15.039062-16 15.039062h-129.921876c-8.480468 0-15.4375-6.558594-16-15.039062l-1.519531-24.800782 2.480469-.160156h160zm0 0" fill="#aab2bd"/><path d="m432 344c0 30.929688-25.070312 56-56 56s-56-25.070312-56-56 25.070312-56 56-56 56 25.070312 56 56zm0 0" fill="#e6e9ed"/><path d="m136 104v48h32v-16h-16v-32zm0 0"/><path d="m152 239.640625v-31.640625h-16v31.59375c-46.550781-3.867188-83.726562-41.042969-87.59375-87.59375h31.59375v-16h-31.640625c1.679687-19.96875 9.609375-39.039062 22.792969-54.40625l-12.144532-10.417969c-17.414062 20.304688-27.007812 46.160157-27.007812 72.824219 0 61.761719 50.238281 112 112 112 26.65625 0 52.511719-9.59375 72.824219-27l-10.425781-12.152344c-15.359376 13.183594-34.429688 21.113282-54.398438 22.792969zm0 0"/><path d="m144 32c-26.65625 0-52.511719 9.59375-72.824219 27l10.425781 12.152344c15.359376-13.175782 34.429688-21.105469 54.398438-22.792969v31.640625h16v-31.59375c46.550781 3.867188 83.726562 41.042969 87.59375 87.59375h-31.59375v16h31.640625c-1.679687 19.96875-9.609375 39.046875-22.792969 54.40625l12.144532 10.417969c17.414062-20.304688 27.007812-46.160157 27.007812-72.824219 0-61.761719-50.238281-112-112-112zm0 0"/><path d="m208 304h-128c-30.871094 0-56 25.128906-56 56v24c0 5.273438 2.59375 9.910156 6.535156 12.832031-4.046875 5.359375-6.535156 11.953125-6.535156 19.167969s2.488281 13.808594 6.535156 19.167969c-3.941406 2.921875-6.535156 7.558593-6.535156 12.832031 0 26.472656 21.527344 48 48 48h144c26.472656 0 48-21.527344 48-48 0-5.273438-2.59375-9.910156-6.535156-12.832031 4.046875-5.359375 6.535156-11.953125 6.535156-19.167969s-2.488281-13.808594-6.535156-19.167969c3.941406-2.921875 6.535156-7.558593 6.535156-12.832031v-24c0-30.871094-25.128906-56-56-56zm40 80h-40v16h24c8.824219 0 16 7.175781 16 16s-7.175781 16-16 16h-136v16h152c0 17.648438-14.351562 32-32 32h-144c-17.648438 0-32-14.351562-32-32h40v-16h-24c-8.824219 0-16-7.175781-16-16s7.175781-16 16-16h136v-16h-152v-24c0-22.054688 17.945312-40 40-40h128c22.054688 0 40 17.945312 40 40zm0 0"/><path d="m176 336h16v16h-16zm0 0"/><path d="m136 352h16v16h-16zm0 0"/><path d="m96 336h16v16h-16zm0 0"/><path d="m480 192h-94.105469l20.578125-96h65.527344v-16h-78.472656l-24 112h-89.925782c5.34375-15.039062 8.398438-31.152344 8.398438-48 0-79.398438-64.601562-144-144-144s-144 64.601562-144 144 64.601562 144 144 144c46.425781 0 87.664062-22.175781 114.015625-56.382812 2.71875 4.96875 7.9375 8.382812 13.984375 8.382812h.488281l14.589844 233.496094c.777344 12.625 11.304687 22.503906 23.953125 22.503906h129.9375c12.648438 0 23.167969-9.878906 23.953125-22.496094l14.589844-233.503906h.488281c8.824219 0 16-7.175781 16-16v-16c0-8.824219-7.175781-16-16-16zm-336 80c-70.574219 0-128-57.425781-128-128s57.425781-128 128-128 128 57.425781 128 128-57.425781 128-128 128zm306.984375 168h-26.984375v16h25.984375l-1.03125 16.503906c-.257813 4.207032-3.769531 7.496094-7.984375 7.496094h-129.9375c-4.214844 0-7.726562-3.289062-7.984375-7.503906l-1.03125-16.496094h105.984375v-16h-106.984375l-12.496094-200h174.96875zm29.015625-216h-208v-14.328125c.28125-.542969.527344-1.121094.808594-1.671875h207.191406zm0 0"/><path d="m376 408c35.289062 0 64-28.710938 64-64s-28.710938-64-64-64-64 28.710938-64 64 28.710938 64 64 64zm0-112c26.472656 0 48 21.527344 48 48s-21.527344 48-48 48-48-21.527344-48-48 21.527344-48 48-48zm0 0"/><path d="m344 320h64v16h-64zm0 0"/><path d="m344 352h64v16h-64zm0 0"/></svg>