<svg height="511pt" viewBox="0 -4 511.9996 511" width="511pt" xmlns="http://www.w3.org/2000/svg"><path d="m473.035156 304.871094h-228.957031c-18.863281 0-34.15625 15.292968-34.15625 34.15625v129.765625c0 18.863281 15.292969 34.15625 34.15625 34.15625h228.957031c18.863282 0 34.15625-15.292969 34.15625-34.15625v-129.765625c0-18.863282-15.292968-34.15625-34.15625-34.15625zm0 0" fill="#ff491f"/><g fill="#2d303b"><path d="m402.207031 349.453125h-192.285156v41.425781h297.269531v-41.425781zm0 0"/><path d="m382.007812 435.058594h-46.902343c-4.253907 0-7.703125-3.445313-7.703125-7.699219s3.449218-7.703125 7.703125-7.703125h46.902343c4.253907 0 7.703126 3.449219 7.703126 7.703125s-3.449219 7.699219-7.703126 7.699219zm0 0"/><path d="m456.71875 435.058594h-46.902344c-4.253906 0-7.703125-3.445313-7.703125-7.699219s3.449219-7.703125 7.703125-7.703125h46.902344c4.253906 0 7.703125 3.449219 7.703125 7.703125s-3.449219 7.699219-7.703125 7.699219zm0 0"/><path d="m307.300781 435.058594h-46.902343c-4.257813 0-7.703126-3.445313-7.703126-7.699219s3.445313-7.703125 7.703126-7.703125h46.902343c4.253907 0 7.699219 3.449219 7.699219 7.703125s-3.445312 7.699219-7.699219 7.699219zm0 0"/></g><path d="m3.964844.5h370.183594v215.078125h-370.183594zm0 0" fill="#32cc77"/><path d="m341.804688 143.480469v-70.882813c-21.957032 0-39.753907-17.796875-39.753907-39.753906h-225.988281c0 21.957031-17.796875 39.753906-39.753906 39.753906v70.882813c21.957031 0 39.753906 17.796875 39.753906 39.753906h225.988281c0-21.957031 17.796875-39.753906 39.753907-39.753906zm0 0" fill="#1fb25e"/><path d="m229.113281 108.039062c0 22.121094-17.933593 40.054688-40.054687 40.054688-22.125 0-40.058594-17.933594-40.058594-40.054688 0-22.121093 17.933594-40.054687 40.058594-40.054687 22.121094 0 40.054687 17.933594 40.054687 40.054687zm0 0" fill="#32cc77"/><path d="m297.996094 115.742188h-24.644532c-4.253906 0-7.703124-3.449219-7.703124-7.703126 0-4.253906 3.449218-7.703124 7.703124-7.703124h24.644532c4.257812 0 7.703125 3.449218 7.703125 7.703124 0 4.253907-3.449219 7.703126-7.703125 7.703126zm0 0" fill="#32cc77"/><path d="m104.761719 115.742188h-24.644531c-4.253907 0-7.703126-3.449219-7.703126-7.703126 0-4.253906 3.449219-7.703124 7.703126-7.703124h24.644531c4.253906 0 7.703125 3.449218 7.703125 7.703124 0 4.253907-3.449219 7.703126-7.703125 7.703126zm0 0" fill="#32cc77"/><path d="m341.808594 40.542969c-3.363282 0-6.386719-2.246094-7.375-5.460938-.898438-2.9375.113281-6.246093 2.484375-8.191406 5.316406-4.359375 13.554687.273437 12.503906 7.085937-.570313 3.722657-3.839844 6.566407-7.613281 6.566407zm0 0" fill="#1fb25e"/><path d="m341.808594 190.933594c-3.160156 0-6.042969-1.988282-7.183594-4.929688-1.210938-3.113281-.203125-6.746094 2.410156-8.820312 5.472656-4.339844 13.734375.6875 12.320313 7.558594-.726563 3.550781-3.910157 6.191406-7.546875 6.191406zm0 0" fill="#1fb25e"/><path d="m36.308594 40.542969c-3.367188 0-6.375-2.261719-7.367188-5.460938-.953125-3.082031.226563-6.585937 2.84375-8.46875 5.5625-3.996093 13.414063.996094 12.082032 7.734375-.703126 3.5625-3.941407 6.195313-7.558594 6.195313zm0 0" fill="#1fb25e"/><path d="m36.308594 190.933594c-3.363282 0-6.382813-2.261719-7.367188-5.464844-1.003906-3.269531.371094-6.917969 3.253906-8.746094 5.75-3.648437 13.257813 1.8125 11.578126 8.402344-.863282 3.371094-3.980469 5.808594-7.464844 5.808594zm0 0" fill="#1fb25e"/><path d="m183.742188 450.5625c-40.59375-14.636719-75.378907-41.015625-100.589844-76.285156-22.433594-31.382813-35.652344-67.703125-38.691406-105.921875l18.839843 16.546875c3.195313 2.808594 8.0625 2.492187 10.871094-.703125 2.804687-3.199219 2.492187-8.0625-.707031-10.871094l-32.304688-28.375c-3.199218-2.808594-8.0625-2.492187-10.871094.703125l-28.375 32.308594c-2.804687 3.195312-2.492187 8.0625.707032 10.867187 1.460937 1.285157 3.273437 1.917969 5.078125 1.917969 2.140625 0 4.265625-.886719 5.789062-2.621094l15.675781-17.847656c3.363282 40.746094 17.519532 79.46875 41.453126 112.953125 27.039062 37.828125 64.351562 66.121094 107.902343 81.816406.859375.3125 1.742188.460938 2.609375.460938 3.15625 0 6.117188-1.953125 7.246094-5.09375 1.445312-4-.632812-8.414063-4.632812-9.855469zm0 0" fill="#c4e2f2"/><path d="m509.847656 241.035156c-2.945312-3.066406-7.820312-3.164062-10.890625-.214844l-16.25 15.628907c.039063-1.734375.074219-3.464844.074219-5.195313 0-67.757812-29.917969-131.480468-82.085938-174.828125-3.273437-2.71875-8.128906-2.269531-10.847656 1-2.71875 3.273438-2.269531 8.128907 1 10.847657 48.636719 40.410156 76.527344 99.816406 76.527344 162.980468 0 2.496094-.058594 4.996094-.144531 7.496094l-18.179688-18.902344c-2.945312-3.066406-7.824219-3.160156-10.890625-.214844-3.066406 2.949219-3.160156 7.828126-.210937 10.890626l29.804687 30.992187c1.289063 1.34375 3.023438 2.164063 4.867188 2.328125.0625.007812.125.023438.1875.03125.292968.03125.585937.046875.878906.046875 2.765625 0 5.253906-1.492187 6.609375-3.78125l29.339844-28.214844c3.066406-2.949219 3.160156-7.824219.210937-10.890625zm0 0" fill="#c4e2f2"/></svg>