<svg height="496pt" viewBox="0 0 496 496" width="496pt" xmlns="http://www.w3.org/2000/svg" xmlns:xlink="http://www.w3.org/1999/xlink"><linearGradient id="a" gradientUnits="userSpaceOnUse" x1="248" x2="248" y1="496" y2="0"><stop offset="0" stop-color="#9f2fff"/><stop offset="1" stop-color="#0bb1d3"/></linearGradient><path d="m336 304v-16h-16v16h-24v80h24v16h16v-16c13.230469 0 24-10.769531 24-24 0-6.144531-2.320312-11.753906-6.128906-16 3.808594-4.246094 6.128906-9.855469 6.128906-16 0-13.230469-10.769531-24-24-24zm0 64h-24v-16h24c4.40625 0 8 3.585938 8 8s-3.59375 8-8 8zm0-32h-24v-16h24c4.40625 0 8 3.585938 8 8s-3.59375 8-8 8zm-8 96c-48.519531 0-88-39.480469-88-88 0-20.246094 7.054688-40.023438 19.871094-55.6875l12.386718 10.144531c-10.480468 12.800781-16.257812 28.984375-16.257812 45.542969 0 39.703125 32.304688 72 72 72 16.558594 0 32.742188-5.777344 45.550781-16.257812l10.136719 12.378906c-15.664062 12.816406-35.441406 19.878906-55.6875 19.878906zm-45.550781-143.742188-10.136719-12.378906c15.664062-12.816406 35.441406-19.878906 55.6875-19.878906 48.519531 0 88 39.480469 88 88 0 20.246094-7.054688 40.023438-19.871094 55.6875l-12.386718-10.144531c10.480468-12.800781 16.257812-28.984375 16.257812-45.542969 0-39.703125-32.304688-72-72-72-16.558594 0-32.742188 5.777344-45.550781 16.257812zm-266.449219-200.257812h-16v-88h88v16h-72zm0 392h72v16h-88v-88h16zm464-72h16v88h-88v-16h72zm-72-408h88v88h-16v-72h-72zm-280 96h-48v48h48zm-16 32h-16v-16h16zm-32 224v48h48v-48zm32 32h-16v-16h16zm272-240v-48h-48v48zm-32-32h16v16h-16zm-160 48h-16v-64h16zm0 80h-16v-48h32v-104h16v120h-32zm-48-16h-32v-16h48v48h48v16h-64zm-64 80v-16h112v56h-16v-40zm48-48h-48v-16h48zm160-96h-16v-64h16zm64 48h-112v-112h16v96h96zm-256 16h-16v-16h16zm288-16h-16v-16h16zm-192 176h16v16h-32v-40h16zm256-40c0-31.382812-12.207031-59.902344-32-81.3125v-198.6875h-368v368h198.6875c21.410156 19.792969 49.929688 32 81.3125 32 66.167969 0 120-53.832031 120-120zm-288-264h144v96h96v72.222656c-20.078125-15.132812-44.96875-24.222656-72-24.222656-66.167969 0-120 53.832031-120 120 0 27.03125 9.089844 51.921875 24.222656 72h-72.222656v-96h-96v-144h96zm240 80h-80v-80h80zm-256-80v80h-80v-80zm-80 256h80v80h-80zm160 8c0-57.34375 46.65625-104 104-104s104 46.65625 104 104-46.65625 104-104 104-104-46.65625-104-104zm-16-120h16v16h-16zm0 0" fill="url(#a)"/></svg>