<svg height="512pt" viewBox="0 0 512 512" width="512pt" xmlns="http://www.w3.org/2000/svg" xmlns:xlink="http://www.w3.org/1999/xlink"><linearGradient id="a" gradientUnits="userSpaceOnUse" x1="0" x2="512" y1="256" y2="256"><stop offset="0" stop-color="#00f38d"/><stop offset="1" stop-color="#009eff"/></linearGradient><path d="m512 256c0 141.386719-114.613281 256-256 256s-256-114.613281-256-256 114.613281-256 256-256 256 114.613281 256 256zm0 0" fill="url(#a)"/><path d="m380.058594 352.714844v-23.855469h48.277344v-30h-129.25v30h50.972656v23.855469h-76.410156v-57.441406l78.996093-143.460938c10.71875-19.730469 4.273438-44.578125-14.667969-56.5625-24.042968-15.214844-61.753906-33.355469-104.863281-33.355469s-80.820312 18.140625-104.867187 33.355469c-18.941406 11.984375-25.382813 36.832031-14.707032 56.484375l76.347657 142.535156v58.445313h-50.832031v-23.855469h25.394531v-30h-80.785157v30h25.390626v23.855469h-26.925782v55.390625h30v-25.390625h287.742188v25.390625h30v-55.390625zm-235.773438-232.113282c20.695313-13.097656 52.90625-28.707031 88.824219-28.707031 35.925781 0 68.132813 15.609375 88.824219 28.707031 5.644531 3.570313 7.554687 10.992188 4.390625 16.816407l-51.101563 92.800781c-6.59375-3.789062-14.933594-7.625-24.4375-9.945312l21.140625-87.339844-29.160156-7.058594-22.605469 93.394531c-12.007812 2.171875-22.429687 6.972657-30.21875 11.570313l-50-93.347656c-3.207031-5.902344-1.296875-13.320313 4.34375-16.890626zm59.835938 136.707032c6.082031-3.710938 17.125-9.234375 28.992187-9.234375 11.03125 0 21.351563 4.773437 27.636719 8.429687l-17.101562 31.054688v65.15625h-23.761719v-65.972656zm0 0" fill="#fff"/></svg>