<svg height="511pt" viewBox="1 -64 511.99899 511" width="511pt" xmlns="http://www.w3.org/2000/svg"><path d="m501.910156 278.601562h-491.820312v-132.300781c0-48.488281 39.304687-87.792969 87.792968-87.792969h316.234376c48.488281 0 87.792968 39.304688 87.792968 87.792969zm0 0" fill="#fff"/><g fill="#445c7b"><path d="m10.089844 278.601562h66.867187v48.707032h-66.867187zm0 0"/><path d="m165.007812 278.601562h88.054688v48.707032h-88.054688zm0 0"/><path d="m76.957031 278.601562h88.050781v48.707032h-88.050781zm0 0"/><path d="m253.0625 278.601562h88.050781v48.707032h-88.050781zm0 0"/><path d="m429.167969 278.601562h72.742187v48.707032h-72.742187zm0 0"/><path d="m341.113281 278.601562h88.054688v48.707032h-88.054688zm0 0"/></g><path d="m218.738281 103.210938h26.910157v133.449218h-193.117188v-95.277344c0-21.082031 17.09375-38.175781 38.175781-38.175781h47.976563" fill="#a0d5f4"/><path d="m290.039062 122.015625h36.34375v36.347656h-36.34375zm0 0" fill="#ff7d62"/><path d="m353.175781 122.015625h36.347657v36.347656h-36.347657zm0 0" fill="#ff7d62"/><path d="m416.3125 122.015625h36.347656v36.347656h-36.347656zm0 0" fill="#ff7d62"/><path d="m290.039062 183.867188h36.34375v36.347656h-36.34375zm0 0" fill="#ff7d62"/><path d="m353.175781 183.867188h36.347657v36.347656h-36.347657zm0 0" fill="#ff7d62"/><path d="m416.3125 183.867188h36.347656v36.347656h-36.347656zm0 0" fill="#ff7d62"/><path d="m414.117188 48.105469h-11.757813v-27.164063h63.179687c5.570313 0 10.089844-4.519531 10.089844-10.09375 0-5.570312-4.519531-10.089844-10.089844-10.089844h-167.921874c-5.574219 0-10.09375 4.519532-10.09375 10.089844 0 5.574219 4.519531 10.09375 10.09375 10.09375h84.558593v27.164063h-252.351562v-27.164063h86.054687c5.574219 0 10.089844-4.519531 10.089844-10.09375 0-5.570312-4.515625-10.089844-10.089844-10.089844h-169.417968c-5.574219 0-10.089844 4.519532-10.089844 10.089844 0 5.574219 4.515625 10.09375 10.089844 10.09375h63.179687v27.164063h-11.757813c-53.972656 0-97.882812 43.910156-97.882812 97.882812v181.007813c0 5.574218 4.519531 10.089844 10.089844 10.089844h99.550781v27.167968h-36.890625c-5.570312 0-10.089844 4.519532-10.089844 10.089844 0 5.574219 4.519532 10.089844 10.089844 10.089844h366.496094c5.574218 0 10.09375-4.515625 10.09375-10.089844 0-5.570312-4.519532-10.089844-10.09375-10.089844h-36.886719v-27.167968h99.546875c5.574219 0 10.09375-4.515626 10.09375-10.089844v-181.007813c0-53.972656-43.910156-97.882812-97.882812-97.882812zm-316.234376 20.183593h316.234376c42.84375 0 77.699218 34.855469 77.699218 77.699219v122.210938h-471.632812v-122.210938c0-42.84375 34.855468-77.699219 77.699218-77.699219zm253.324219 248.617188v-28.523438h67.871094v28.523438zm-20.183593 0h-67.871094v-28.523438h67.871094zm-88.050782 0h-67.871094v-28.523438h67.871094zm-222.789062-28.523438h46.679687v28.523438h-46.679687zm66.863281 0h67.871094v28.523438h-67.871094zm295.128906 75.871094h-252.351562v-27.167968h252.351562zm57.082031-47.347656v-28.523438h52.558594v28.523438zm0 0"/><path d="m52.53125 246.441406h193.117188c5.570312 0 10.089843-4.515625 10.089843-10.089844v-133.453124c0-5.570313-4.519531-10.089844-10.089843-10.089844h-26.910157c-5.574219 0-10.089843 4.519531-10.089843 10.089844 0 5.574218 4.515624 10.09375 10.089843 10.09375h16.816407v113.269531h-172.929688v-85.1875c0-15.484375 12.597656-28.082031 28.082031-28.082031h47.976563c5.574218 0 10.089844-4.519532 10.089844-10.09375 0-5.570313-4.515626-10.089844-10.089844-10.089844h-47.976563c-26.613281 0-48.265625 21.652344-48.265625 48.265625v95.277343c0 5.574219 4.519532 10.089844 10.089844 10.089844zm0 0"/><path d="m290.039062 168.144531h36.347657c5.570312 0 10.089843-4.519531 10.089843-10.089843v-36.347657c0-5.574219-4.519531-10.09375-10.089843-10.09375h-36.347657c-5.574218 0-10.09375 4.519531-10.09375 10.09375v36.347657c0 5.570312 4.519532 10.089843 10.09375 10.089843zm10.089844-36.347656h16.164063v16.164063h-16.164063zm0 0"/><path d="m353.175781 168.144531h36.347657c5.574218 0 10.089843-4.519531 10.089843-10.089843v-36.347657c0-5.574219-4.515625-10.09375-10.089843-10.09375h-36.347657c-5.574219 0-10.09375 4.519531-10.09375 10.09375v36.347657c0 5.570312 4.519531 10.089843 10.09375 10.089843zm10.089844-36.347656h16.164063v16.164063h-16.164063zm0 0"/><path d="m416.3125 168.144531h36.347656c5.574219 0 10.089844-4.519531 10.089844-10.089843v-36.347657c0-5.574219-4.515625-10.09375-10.089844-10.09375h-36.347656c-5.574219 0-10.089844 4.519531-10.089844 10.09375v36.347657c0 5.570312 4.515625 10.089843 10.089844 10.089843zm10.089844-36.347656h16.167968v16.164063h-16.167968zm0 0"/><path d="m290.039062 229.996094h36.347657c5.570312 0 10.089843-4.519532 10.089843-10.089844v-36.347656c0-5.574219-4.519531-10.089844-10.089843-10.089844h-36.347657c-5.574218 0-10.09375 4.515625-10.09375 10.089844v36.347656c0 5.570312 4.519532 10.089844 10.09375 10.089844zm10.089844-36.347656h16.164063v16.167968h-16.164063zm0 0"/><path d="m353.175781 229.996094h36.347657c5.574218 0 10.089843-4.519532 10.089843-10.089844v-36.347656c0-5.574219-4.515625-10.089844-10.089843-10.089844h-36.347657c-5.574219 0-10.09375 4.515625-10.09375 10.089844v36.347656c0 5.570312 4.519531 10.089844 10.09375 10.089844zm10.089844-36.347656h16.164063v16.167968h-16.164063zm0 0"/><path d="m416.3125 229.996094h36.347656c5.574219 0 10.089844-4.519532 10.089844-10.089844v-36.347656c0-5.574219-4.515625-10.089844-10.089844-10.089844h-36.347656c-5.574219 0-10.089844 4.515625-10.089844 10.089844v36.347656c0 5.570312 4.515625 10.089844 10.089844 10.089844zm10.089844-36.347656h16.167968v16.167968h-16.167968zm0 0"/><path d="m98.023438 187.75c-.800782 0-4.796876-.132812-4.796876-2.761719 0-4.476562-2.582031-6.5625-8.128906-6.5625-5.394531 0-8.128906 2.5-8.128906 7.425781 0 8.242188 7.339844 16.589844 21.367188 16.589844 13.382812 0 21.058593-7.304687 21.058593-20.039062v-1.488282c0-12.3125-7.535156-19.097656-21.214843-19.097656h-2.917969l.484375-6.460937h15.28125c3.265625 0 5.542968-3.019531 5.542968-7.34375s-2.277343-7.34375-5.542968-7.34375h-24.988282c-1.664062 0-3.742187.964843-4.203124 5.5625l-2.117188 19.773437-.042969.46875c-.0625.648438-.121093 1.257813-.121093 1.984375 0 5.617188 3.652343 6.796875 6.71875 6.796875h11.90625c2.125 0 4.957031.585938 4.957031 5.660156v1.488282c0 3.75-1.53125 5.347656-5.113281 5.347656zm0 0"/><path d="m145.089844 146.367188c0-3.410157-3.265625-5.699219-8.128906-5.699219-4.863282 0-8.128907 2.289062-8.128907 5.699219v49.824218c0 3.402344 3.34375 5.78125 8.128907 5.78125 4.789062 0 8.128906-2.378906 8.128906-5.78125v-13.488281l1.136718-1.457031 11.820313 17.96875c1.285156 2.082031 3.398437 3.226562 5.945313 3.226562 4.734374 0 9.382812-4.027344 9.382812-8.128906 0-1.054688-.324219-2.128906-.957031-3.140625l-15.417969-23.613281 11.992188-15.070313c.96875-1.328125 1.171874-2.65625 1.171874-3.535156 0-4.386719-5.160156-8.285156-9.226562-8.285156-2.023438 0-3.707031.894531-4.863281 2.574219l-10.980469 15.566406v-12.441406zm0 0"/><path d="m200.660156 155.355469c4.488282 0 4.863282 1.921875 4.953125 5.089843.058594 2.105469 1.195313 5.644532 8.128907 5.644532 4.019531 0 8.128906-.929688 8.128906-7.816406 0-10.53125-8.714844-17.605469-21.683594-17.605469-13.230469 0-20.820312 7.472656-20.820312 20.503906v20.761719c0 13.03125 7.734374 20.507812 21.214843 20.507812 13.53125 0 21.289063-7.476562 21.289063-20.507812v-8.226563c0-3.339843-2.449219-5.855469-5.699219-5.855469h-13.164063c-3.566406 0-5.699218 3.414063-5.699218 6.71875 0 3.828126 2.453125 6.71875 5.699218 6.71875h2.605469v.644532c0 5.152344-2.6875 5.816406-5.03125 5.816406-2.308593 0-4.953125-.660156-4.953125-5.816406v-20.761719c-.003906-5.15625 2.6875-5.816406 5.03125-5.816406zm0 0"/><path d="m169.199219 106.78125c1.464843 4.140625 5.355469 6.726562 9.511719 6.726562 1.117187 0 2.253906-.1875 3.367187-.582031 5.253906-1.863281 8.003906-7.628906 6.144531-12.882812l-.183594-.511719c-1.859374-5.253906-7.625-8.003906-12.878906-6.140625-5.253906 1.859375-8.003906 7.625-6.144531 12.878906zm0 0"/><path d="m247.328125 14.484375c1.46875 4.132813 5.359375 6.714844 9.511719 6.714844 1.121094 0 2.257812-.1875 3.375-.585938 5.253906-1.867187 7.996094-7.632812 6.132812-12.886719l-.183594-.511718c-1.863281-5.25-7.632812-7.996094-12.886718-6.128906-5.25 1.867187-7.996094 7.632812-6.128906 12.886718zm0 0"/></svg>