<svg height="511pt" viewBox="1 0 511.99998 511" width="511pt" xmlns="http://www.w3.org/2000/svg"><path d="m36.785156 154.382812h438.4375v356.769532h-438.4375zm0 0" fill="#e6e6e6"/><path d="m449.097656 305.585938v-150.136719h-169.8125v150.136719h-25.914062v205.5625h232.503906v-205.5625zm0 0" fill="#ccc"/><path d="m36.785156 154.382812h438.4375v48.972657h-438.4375zm0 0" fill="#ccc"/><path d="m474.917969.5h-437.835938l-37.082031 175.6875h512zm0 0" fill="#2c92bf"/><path d="m475.222656 155.449219h-169.816406v150.136719l169.816406 46.8125zm0 0" fill="#ff8e1d"/><path d="m76.960938 229.257812h152.023437v281.890626h-152.023437zm0 0" fill="#2c92bf"/><path d="m279.496094 305.585938h232.503906v205.5625h-232.503906zm0 0" fill="#ff8e1d"/><path d="m436.496094 403.804688-40.75-22.988282-40.75 22.988282v-98.21875h81.5zm0 0" fill="#ff491f"/><path d="m420.078125 227.183594-29.761719-16.789063-29.765625 16.789063v-71.734375h59.527344zm0 0" fill="#ff491f"/><path d="m111.699219 265.140625h82.546875v109.714844h-82.546875zm0 0" fill="#c4e2f2"/><g fill="#e6e6e6"><path d="m194.246094 382.691406h-82.546875c-4.328125 0-7.835938-3.507812-7.835938-7.835937v-109.714844c0-4.328125 3.507813-7.835937 7.835938-7.835937h82.546875c4.328125 0 7.835937 3.507812 7.835937 7.835937v109.714844c0 4.328125-3.507812 7.835937-7.835937 7.835937zm-74.710938-15.671875h66.875v-94.042969h-66.875zm0 0"/><path d="m194.246094 421.355469h-14.519532c-4.328124 0-7.835937-3.511719-7.835937-7.839844s3.507813-7.835937 7.835937-7.835937h14.519532c4.328125 0 7.835937 3.507812 7.835937 7.835937s-3.507812 7.839844-7.835937 7.839844zm0 0"/><path d="m152.972656 382.691406c-4.328125 0-7.835937-3.507812-7.835937-7.835937v-109.714844c0-4.328125 3.507812-7.835937 7.835937-7.835937s7.835938 3.507812 7.835938 7.835937v109.714844c0 4.328125-3.507813 7.835937-7.835938 7.835937zm0 0"/><path d="m194.246094 327.835938h-82.546875c-4.328125 0-7.835938-3.511719-7.835938-7.839844s3.507813-7.835938 7.835938-7.835938h82.546875c4.328125 0 7.835937 3.507813 7.835937 7.835938s-3.507812 7.839844-7.835937 7.839844zm0 0"/></g><path d="m461.84375 124.601562h-411.6875c-4.328125 0-7.835938-3.507812-7.835938-7.835937s3.507813-7.835937 7.835938-7.835937h411.6875c4.328125 0 7.835938 3.507812 7.835938 7.835937s-3.507813 7.835937-7.835938 7.835937zm0 0" fill="#1f81a3"/><path d="m431.546875 69.015625h-351.09375c-4.328125 0-7.835937-3.511719-7.835937-7.839844s3.507812-7.835937 7.835937-7.835937h351.09375c4.328125 0 7.835937 3.507812 7.835937 7.835937s-3.507812 7.839844-7.835937 7.839844zm0 0" fill="#1f81a3"/><path d="m279.496094 511.148438 116.25-27.101563 116.253906 27.101563zm0 0" fill="#e2720e"/><path d="m305.40625 305.585938 84.910156-23.714844 84.90625 23.714844zm0 0" fill="#e2720e"/></svg>