<svg height="511pt" viewBox="-8 0 511 511.99664" width="511pt" xmlns="http://www.w3.org/2000/svg"><path d="m442.644531 27.625v345.085938c0 15.257812-12.367187 27.625-27.625 27.625h-386.894531c-15.261719 0-27.625-12.367188-27.625-27.625v-345.085938c0-15.257812 12.363281-27.625 27.625-27.625h386.894531c15.257813 0 27.625 12.367188 27.625 27.625zm0 0" fill="#c4e2f2"/><path d="m442.644531 27.625v33h-442.144531v-33c0-15.257812 12.363281-27.625 27.625-27.625h386.894531c15.257813 0 27.625 12.367188 27.625 27.625zm0 0" fill="#83b2c6"/><g fill="#e6e6e6"><path d="m37.082031 40.246094c-7 0-10.472656-8.949219-5.265625-13.652344 2.535156-2.289062 6.363282-2.667969 9.292969-.914062 2.871094 1.71875 4.347656 5.175781 3.613281 8.441406-.792968 3.527344-4.011718 6.125-7.640625 6.125zm0 0"/><path d="m90.390625 40.246094c-3.207031 0-6.15625-2.039063-7.304687-5.019532-1.222657-3.183593-.214844-6.910156 2.484374-9.003906 2.746094-2.125 6.609376-2.179687 9.425782-.164062 2.632812 1.886718 3.792968 5.332031 2.945312 8.433594-.917968 3.355468-4.074218 5.753906-7.550781 5.753906zm0 0"/><path d="m63.734375 40.246094c-6.996094 0-10.472656-8.949219-5.261719-13.652344 2.535156-2.289062 6.359375-2.664062 9.289063-.914062 2.871093 1.71875 4.351562 5.175781 3.617187 8.441406-.796875 3.527344-4.011718 6.125-7.644531 6.125zm0 0"/></g><path d="m159.09375 110.308594h-120.722656c-4.328125 0-7.839844-3.511719-7.839844-7.839844s3.511719-7.839844 7.839844-7.839844h120.722656c4.328125 0 7.839844 3.511719 7.839844 7.839844s-3.511719 7.839844-7.839844 7.839844zm0 0" fill="#ff491f"/><path d="m159.09375 147.984375h-120.722656c-4.328125 0-7.839844-3.507813-7.839844-7.839844 0-4.328125 3.511719-7.839843 7.839844-7.839843h120.722656c4.328125 0 7.839844 3.511718 7.839844 7.839843 0 4.332031-3.511719 7.839844-7.839844 7.839844zm0 0" fill="#3c3f4d"/><path d="m138.1875 185.660156h-99.816406c-4.328125 0-7.839844-3.507812-7.839844-7.839844 0-4.328124 3.511719-7.835937 7.839844-7.835937h99.816406c4.328125 0 7.839844 3.507813 7.839844 7.835937 0 4.332032-3.511719 7.839844-7.839844 7.839844zm0 0" fill="#3c3f4d"/><path d="m104.222656 223.339844h-65.851562c-4.328125 0-7.839844-3.511719-7.839844-7.839844 0-4.332031 3.511719-7.839844 7.839844-7.839844h65.851562c4.328125 0 7.835938 3.507813 7.835938 7.839844 0 4.328125-3.507813 7.839844-7.835938 7.839844zm0 0" fill="#3c3f4d"/><path d="m451.738281 399.878906c-38.398437-38.394531-84.964843-54.078125-104.015625-35.03125-19.050781 19.050782-3.363281 65.621094 35.03125 104.015625 38.398438 38.398438 84.964844 54.082031 104.015625 35.03125 19.050781-19.046875 3.363281-65.617187-35.03125-104.015625zm0 0" fill="#ff8e1d"/><path d="m486.535156 504.125c-19.199218 18.691406-65.542968 2.96875-103.773437-35.261719-38.234375-38.234375-53.953125-84.578125-35.261719-103.773437-9.550781 10.507812 13.308594 49.539062 51.402344 87.632812s77.125 60.953125 87.632812 51.402344zm0 0" fill="#e2720e"/><path d="m413.457031 286.640625c0 79.496094-64.441406 143.933594-143.933593 143.933594-79.492188 0-143.933594-64.4375-143.933594-143.933594 0-79.492187 64.441406-143.933594 143.933594-143.933594 79.492187 0 143.933593 64.441407 143.933593 143.933594zm0 0" fill="#3c3f4d"/><path d="m341.964844 359.082031c-24.011719 24.007813-56.957032 33.601563-88.125 28.804688-20.769532-3.199219-40.757813-12.804688-56.757813-28.804688-40.015625-40.003906-40.015625-104.875 0-144.886719 16-16.003906 35.988281-25.597656 56.757813-28.796874 31.167968-4.808594 64.113281 4.796874 88.125 28.796874 40.003906 40.011719 40.003906 104.882813 0 144.886719zm0 0" fill="#fff"/><path d="m310.605469 359.082031c-16 16-35.988281 25.605469-56.765625 28.804688-20.769532-3.199219-40.757813-12.804688-56.757813-28.804688-40.015625-40.003906-40.015625-104.875 0-144.886719 16-16.003906 35.988281-25.597656 56.757813-28.796874 20.777344 3.199218 40.765625 12.792968 56.765625 28.796874 40.015625 40.011719 40.015625 104.882813 0 144.886719zm0 0" fill="#e6e6e6"/><path d="m269.523438 396.878906c-28.246094 0-56.484376-10.746094-77.988282-32.25-43-43-43-112.96875 0-155.96875 43.003906-43.003906 112.96875-43 155.972656 0 43 43 43 112.96875 0 155.96875-21.496093 21.496094-49.746093 32.25-77.984374 32.25zm0-204.800781c-24.230469 0-48.457032 9.222656-66.898438 27.667969-36.890625 36.886718-36.890625 96.90625 0 133.796875 36.886719 36.886719 96.90625 36.886719 133.796875 0 36.886719-36.890625 36.886719-96.910157 0-133.796875-18.445313-18.445313-42.671875-27.667969-66.898437-27.667969zm0 0" fill="#2d303b"/><path d="m269.519531 354.839844c-4.328125 0-7.839843-3.507813-7.839843-7.835938v-120.722656c0-4.332031 3.511718-7.839844 7.839843-7.839844s7.839844 3.507813 7.839844 7.839844v120.722656c0 4.328125-3.511719 7.835938-7.839844 7.835938zm0 0" fill="#32cc77"/><path d="m329.878906 294.480469h-120.71875c-4.332031 0-7.839844-3.507813-7.839844-7.839844 0-4.328125 3.507813-7.839844 7.839844-7.839844h120.71875c4.332032 0 7.839844 3.511719 7.839844 7.839844 0 4.332031-3.507812 7.839844-7.839844 7.839844zm0 0" fill="#32cc77"/></svg>